<svg version="1.2" xmlns="http://www.w3.org/2000/svg" viewBox="0 0 1080 1080" width="1080" height="1080">
	<title>Nowy projekt</title>
	<style>
		.s0 { fill: #ff6400 } 
	</style>
	<path id="C" class="s0" aria-label="C"  d="m576.1 900.2q-33.7 0-67.4-6.3-33.2-6.4-63.4-22-29.8-15.6-55.7-42-25.9-26.9-44.9-67.4-19.1-41-29.8-97.2-10.7-56.1-10.7-131.3 0-72.3 12.2-126.5 12.2-54.7 32.7-94.2 20.5-39.6 47.8-64.9 27.4-25.9 57.6-41.1 30.3-15.1 61.6-21 31.2-6.3 60-6.3 48.9 0 85 4.9 36.1 4.9 60.5 10.7 28.4 6.9 48.4 15.6v84q-20-1.4-43-2.9-19.5-1-44.9-2-24.9-1.4-52.3-1.4-24.9 0-49.8 1.9-24.4 2-47.3 10.3-22.5 7.8-42 23.4-19.6 15.6-34.2 43-14.2 26.8-22.5 67.4-7.8 40.5-7.8 98.1 0 60.6 8.3 103.5 8.3 43 23 71.8 14.6 28.8 34.2 45.4 19.5 16.6 42.4 25.4 23 8.3 47.9 10.8 24.9 1.9 49.8 1.9 32.2 0 58.6-1 26.3-0.9 44.9-1.9 22-1.5 39.6-3v84q-21.5 8.8-50.8 15.2-25.4 5.8-62.5 10.7-36.6 4.4-85.5 4.4z"/>
</svg>